HIERARCHY
ROOT Hips
{
	OFFSET	0.00	0.00	0.00
	CHANNELS 6 Xposition Yposition Zposition Zrotation Xrotation Yrotation
	JOINT Spine
	{
		OFFSET	 0.00	0.01	 0.00
		CHANNELS 3 Zrotation Xrotation Yrotation
		JOINT Spine1
		{
			OFFSET	 0.00	 2.45913012437421	 0.00
			CHANNELS 3 Zrotation Xrotation Yrotation
            JOINT Neck
            {
                OFFSET	 0.00	 2.48462964506057	 0.00
                CHANNELS 3 Zrotation Xrotation Yrotation
                JOINT Head
                {
                    OFFSET	 0.00	 0.927524780924562	 0.00
                    CHANNELS 3 Zrotation Xrotation Yrotation
                    End Site 
                    {
                        OFFSET	 0.00	 1.14999962169752	 0.00
                    }
                }
            }
			JOINT LeftShoulder
			{
				OFFSET	 0.00	 2.48462964506057	 0.00
				CHANNELS 3 Zrotation Xrotation Yrotation
				JOINT LeftUpArm
				{
					OFFSET	 0.00	 1.24881979654096	 0.00
					CHANNELS 3 Zrotation Xrotation Yrotation
					JOINT LeftForeArm
					{
						OFFSET	 0.00	2.59758046908119	 0.00
						CHANNELS 3 Zrotation Xrotation Yrotation
						JOINT LeftHand
						{
							OFFSET	 0.00	2.45542024364365	 0.00
							CHANNELS 3 Zrotation Xrotation Yrotation
							JOINT LeftHandThumb 
							{
								OFFSET	 0.00	0.00	 0.00
								CHANNELS 3 Zrotation Xrotation Yrotation
								End Site
								{
									OFFSET	 0.00	0.00	1.00000003353624
								}
							}
							JOINT L_Wrist_End 
							{
								OFFSET	 0.00	0.99999967115358	 0.00
								CHANNELS 3 Zrotation Xrotation Yrotation
								End Site 
								{
									OFFSET	 0.00	 0.00	 0.00
								}
							}
						}
					}
				}
			}
			JOINT RightShoulder
			{
				OFFSET	 0.00	 2.48462964506057	 0.00
				CHANNELS 3 Zrotation Xrotation Yrotation
				JOINT RightUpArm
				{
					OFFSET	 0.00	 1.24881979654096	 0.00
					CHANNELS 3 Zrotation Xrotation Yrotation
					JOINT RightForeArm
					{
						OFFSET	 0.00	2.59758046908119	 0.00
						CHANNELS 3 Zrotation Xrotation Yrotation
						JOINT RightHand
						{
							OFFSET	 0.00	2.45542024364365	 0.00
							CHANNELS 3 Zrotation Xrotation Yrotation
							JOINT RightHandThumb 
							{
								OFFSET	 0.00	0.00	 0.00
								CHANNELS 3 Zrotation Xrotation Yrotation
								End Site
								{
									OFFSET	 0.00	0.00	1.00000003353624
								}
							}
							JOINT R_Wrist_End 
							{
								OFFSET	 0.00	0.99999967115358	 0.00
								CHANNELS 3 Zrotation Xrotation Yrotation
								End Site 
								{
									OFFSET	 0.00	 0.00	 0.00
								}
							}
						}
					}
				}
			}
		}
	}
	JOINT LeftUpLeg
	{
		OFFSET	 1.2719394002717	 0.00	 0.00
		CHANNELS 3 Zrotation Xrotation Yrotation
		JOINT LeftLowLeg
		{
			OFFSET	 0.00	-4.3429100912261	 0.00
			CHANNELS 3 Zrotation Xrotation Yrotation
			JOINT LeftFoot
			{
				OFFSET	 0.00	-4.48767017425826	 0.00
				CHANNELS 3 Zrotation Xrotation Yrotation
				JOINT LeftToeBase
                {
                    OFFSET	 0.00	0.00	 1.51507020887566
                    CHANNELS 3 Zrotation Xrotation Yrotation
                    End Site 
                    {
                        OFFSET	 0.00	0.00	 0.75000010571191
                    }
                }
			}
		}
	}
	JOINT RightUpLeg
	{
		OFFSET	 -1.2719393604653	 0.00	 0.00
		CHANNELS 3 Zrotation Xrotation Yrotation
		JOINT RightLowLeg
		{
			OFFSET	 0.00	-4.3429100912261	 0.00
			CHANNELS 3 Zrotation Xrotation Yrotation
			JOINT RightFoot
			{
				OFFSET	 0.00	-4.48767017425826	 0.00
				CHANNELS 3 Zrotation Xrotation Yrotation
				JOINT RightToeBase
                {
                    OFFSET	 0.00	0.00	 1.51507020887566
                    CHANNELS 3 Zrotation Xrotation Yrotation
                    End Site 
                    {
                        OFFSET	 0.00	0.00	 0.749999965609858
                    }
                }   
			}
		}
	}
}
MOTION 
Frames:	20 
Frame Time: 0.02 
  5.44239013671875 21.209599609375 9.569180297851563 125.873 80.347 141.283 1.7055 -10.8066 2.98314 8.68353 12.9371 3.13125 -22.2186 28.8558 25.4218 4.7525 -40.2031 11.4888 -104.5897 -8.14467 0.658822 -36.6206 0.466531 49.3246 0.0 95.3738 0.0 3.20623 -3.81072 -22.9441 0.0 0.0 0.0 0.0 0.0 0.0 112.8211 2.3765 -7.42655 32.6548 28.1409 -5.19434 0.0 55.355 0.0 -10.7702 1.01745 11.1071 0.0 0.0 0.0 0.0 0.0 0.0 0.815422 -27.006 10.8718 0.0 13.6975 0.0 17.114 10.42141 0.378992 0.0 -40.1902 0.0 9.72191 5.4487 -4.01616 0.0 17.082 0.0 9.90588 -0.9012003 -6.06688 0.0 -31.0902 0.0 
  5.253170166015625 21.1964990234375 9.5506298828125 125.702 80.3118 141.629 1.21844 -11.1115 2.95958 9.22336 13.0273 3.26252 -22.6239 28.6964 25.8621 4.80572 -40.0101 11.2744 -104.9268 -8.11974 0.496559 -36.5253 0.21102 49.3591 0.0 95.3626 0.0 3.52401 -3.71437 -23.1263 0.0 0.0 0.0 0.0 0.0 0.0 113.098495 2.23314 -7.73601 32.6705 27.3534 -6.16012 0.0 54.1048 0.0 -9.91337 1.2069 10.8121 0.0 0.0 0.0 0.0 0.0 0.0 0.471519 -26.5231 9.98152 0.0 14.0724 0.0 17.3397 12.0871105 -0.1431 0.0 -39.9647 0.0 9.43016 5.45998 -3.94254 0.0 19.1376 0.0 10.4314 -0.5682001 -5.56994 0.0 -32.230698 0.0 
  5.038829956054688 21.11409912109375 9.540020141601563 131.974 81.8793 136.983 1.85512 -10.1019 2.55539 8.15548 13.6373 2.55843 -22.8507 28.645 26.1385 4.87261 -39.8757 11.245 -105.156296 -8.08906 0.490849 -36.4196 0.109215 49.2085 0.0 95.217 0.0 3.73967 -3.52642 -23.3578 0.0 0.0 0.0 0.0 0.0 0.0 113.6697 2.12799 -7.82528 32.686 26.3286 -7.43824 0.0 52.5225 0.0 -9.85763 1.32408 10.7212 0.0 0.0 0.0 0.0 0.0 0.0 -1.34721 -24.2886 6.61812 0.0 14.814 0.0 17.9811 13.95609 0.455279 0.0 -39.8824 0.0 8.2995 7.39563 -6.60662 0.0 21.2062 0.0 11.463 0.41670036 -3.50348 0.0 -33.497 0.0 
  4.852239990234375 21.105 9.540800170898438 131.68 81.9611 137.61 1.24424 -10.3644 2.50181 8.50089 13.9253 2.66423 -23.4493 28.1892 27.1102 5.24778 -39.6024 11.1948 -105.1748 -7.94909 0.440405 -36.5873 0.0106978 48.9433 0.0 94.9891 0.0 2.19675 -2.43711 -28.6577 0.0 0.0 0.0 0.0 0.0 0.0 114.068 1.89832 -7.65493 33.1074 25.167 -8.55613 0.0 50.7517 0.0 -9.46625 1.46752 10.4859 0.0 0.0 0.0 0.0 0.0 0.0 -1.65594 -24.3821 5.18862 0.0 17.0539 0.0 18.2733 13.85418 1.32483 0.0 -39.4985 0.0 7.88075 6.62438 -6.26789 0.0 24.6133 0.0 12.3565 1.4940004 -3.25268 0.0 -34.0074 0.0 
  4.657489929199219 21.0681005859375 9.545590209960938 134.917 82.2967 135.287 1.18284 -10.0473 2.25092 8.56707 13.8929 2.42192 -23.8701 28.0931 27.641 5.46201 -39.4215 11.168 -105.2048 -7.96611 0.632191 -36.8163 -0.00165034 48.7547 0.0 94.9122 0.0 2.32123 -2.66048 -28.794 0.0 0.0 0.0 0.0 0.0 0.0 114.242004 1.56521 -7.6628 33.7907 23.9013 -9.7392 0.0 48.7431 0.0 -9.42217 1.5034 11.0922 0.0 0.0 0.0 0.0 0.0 0.0 -2.34258 -24.0157 2.78254 0.0 19.5423 0.0 18.6482 13.45144 2.81046 0.0 -39.178497 0.0 7.21779 6.01094 -7.26649 0.0 28.5492 0.0 13.5016 3.8849 -1.9607 0.0 -35.4347 0.0 
  4.467229919433594 21.02590087890625 9.554149780273438 138.009 82.5778 133.097 1.24534 -9.77433 2.11466 8.50202 13.8851 2.25948 -24.2645 28.2985 27.9154 5.69066 -39.7167 11.1846 -105.2214 -7.81419 0.836865 -36.914 0.00522595 48.5653 0.0 95.032 0.0 2.43431 -2.57088 -28.0182 0.0 0.0 0.0 0.0 0.0 0.0 114.4141 1.07767 -7.57619 34.434 22.6065 -10.9025 0.0 46.5695 0.0 -9.78447 1.66027 11.2278 0.0 0.0 0.0 0.0 0.0 0.0 -2.84508 -23.325 1.99511 0.0 21.2445 0.0 19.5811 12.82039 2.966 0.0 -39.6077 0.0 6.09021 4.82564 -8.82922 0.0 33.0271 0.0 14.0327 7.54296 -0.0196013 0.0 -36.4573 0.0 
  4.2885000610351565 20.98820068359375 9.562630004882813 139.534 82.7491 131.827 1.12286 -9.58847 2.12969 8.6648 13.8132 2.31986 -24.9603 28.5771 28.4851 5.99829 -40.2097 11.3016 -105.2994 -7.75289 0.922618 -36.9942 -0.186708 48.3629 0.0 95.3614 0.0 2.7023 -2.46139 -27.7505 0.0 0.0 0.0 0.0 0.0 0.0 114.4982 0.78266 -7.72484 34.8848 21.4771 -11.7309 0.0 44.1999 0.0 -9.4946 1.54447 11.7984 0.0 0.0 0.0 0.0 0.0 0.0 -3.01264 -22.3112 2.59088 0.0 21.9 0.0 20.2169 11.857389 2.8322 0.0 -39.6506 0.0 4.96917 2.8187 -8.7848 0.0 38.1095 0.0 14.0706 11.47742 0.689391 0.0 -37.7514 0.0 
  4.1101901245117185 20.933798828125 9.565999755859375 140.365 82.9923 131.445 1.25947 -9.54984 2.14042 8.41317 13.8711 2.28135 -25.3559 28.8418 28.7504 6.02983 -40.4561 11.4474 -105.3341 -7.69884 1.15741 -36.823 -0.0479309 48.1603 0.0 95.7466 0.0 3.0777 -2.49145 -27.1572 0.0 0.0 0.0 0.0 0.0 0.0 114.6249 0.397981 -7.67493 35.2419 20.3517 -12.6517 0.0 41.8031 0.0 -8.78441 1.40363 11.9678 0.0 0.0 0.0 0.0 0.0 0.0 -3.49839 -20.9591 2.90802 0.0 21.844 0.0 20.8512 10.96195 2.78562 0.0 -39.5239 0.0 3.67849 0.686315 -8.54042 0.0 43.2574 0.0 15.0142 15.371648 1.56705 0.0 -37.0589 0.0 
  3.945369873046875 20.891201171875 9.568629760742187 141.025 83.2056 130.689 1.23279 -9.41741 2.30943 8.37401 13.9286 2.45913 -25.6993 28.8142 29.1368 5.95284 -40.2913 11.4793 -105.43 -7.64094 1.09351 -36.5814 -0.114088 48.0094 0.0 96.0408 0.0 2.787 -2.27034 -27.8004 0.0 0.0 0.0 0.0 0.0 0.0 114.7721 0.114477 -7.63132 35.403 19.3463 -13.5182 0.0 39.3625 0.0 -8.07352 1.40768 11.4015 0.0 0.0 0.0 0.0 0.0 0.0 -3.74636 -19.6032 3.28704 0.0 21.7233 0.0 20.6364 9.817619 2.8058 0.0 -39.0829 0.0 2.8312 -1.79773 -6.87793 0.0 48.3843 0.0 16.758 18.8522 1.65751 0.0 -34.2117 0.0 
  3.784590148925781 20.846201171875 9.573250122070313 141.185 83.0913 130.785 1.25088 -9.60686 2.11151 8.64687 13.9513 2.25323 -26.2883 28.8645 29.7367 5.77565 -39.9533 11.5641 -105.6231 -7.82513 2.40408 -36.415 0.720882 46.7744 0.0 96.0846 0.0 2.72155 -2.55635 -27.2851 0.0 0.0 0.0 0.0 0.0 0.0 114.754 0.323363 -9.26309 35.0554 18.9956 -12.9219 0.0 36.9675 0.0 -7.50302 0.985222 10.9384 0.0 0.0 0.0 0.0 0.0 0.0 -3.91001 -18.7139 3.24285 0.0 21.9168 0.0 20.6642 8.75729 2.92362 0.0 -38.781403 0.0 2.58584 -4.39224 -4.96827 0.0 52.5605 0.0 18.6569 22.985691 1.10656 0.0 -32.3377 0.0 
  3.6326300048828126 20.8089990234375 9.583590087890625 144.148 83.1431 128.188 1.19935 -9.38534 1.81367 9.08073 14.1628 1.94528 -27.0418 28.5041 30.6086 5.63504 -39.7014 11.2976 -105.8958 -8.06209 2.19853 -36.2896 0.755192 46.6566 0.0 95.9513 0.0 2.41187 -2.58599 -27.335 0.0 0.0 0.0 0.0 0.0 0.0 114.7561 0.333738 -9.45217 35.1002 18.2577 -13.1803 0.0 34.4495 0.0 -7.02339 0.867878 10.298 0.0 0.0 0.0 0.0 0.0 0.0 -3.75413 -17.5525 4.16274 0.0 22.1401 0.0 21.0885 7.6608 2.17721 0.0 -38.7277 0.0 2.48663 -6.59804 -3.5331 0.0 56.2317 0.0 21.7369 27.4708 -0.0511408 0.0 -32.5419 0.0 
  3.4870098876953124 20.77860107421875 9.596339721679687 147.976 83.0543 125.253 1.28777 -8.98487 1.48538 9.318 14.2084 1.57839 -27.3774 28.1867 31.0319 5.52221 -39.6524 11.0449 -105.9542 -7.96861 0.869398 -36.2132 -0.00753797 47.5432 0.0 95.8163 0.0 2.24393 -2.69934 -26.7924 0.0 0.0 0.0 0.0 0.0 0.0 114.964096 -0.215582 -8.21577 35.5056 16.9741 -14.2948 0.0 32.0133 0.0 -6.84744 0.811073 9.83119 0.0 0.0 0.0 0.0 0.0 0.0 -3.58926 -16.4633 4.34462 0.0 22.3147 0.0 21.4226 6.8149204 1.58512 0.0 -38.8802 0.0 2.65966 -8.51555 -2.62457 0.0 59.1208 0.0 25.6573 29.9291 -1.89393 0.0 -33.1783 0.0 
  3.336099853515625 20.74239990234375 9.61219970703125 150.902 82.8556 123.532 1.34767 -8.9648 0.872932 9.71366 14.3233 0.918378 -27.8465 28.257 31.4199 5.38519 -39.7046 11.0719 -105.929 -8.0255 0.869339 -36.3818 0.0412654 47.6292 0.0 95.5097 0.0 1.86954 -2.66844 -26.5878 0.0 0.0 0.0 0.0 0.0 0.0 114.9252 -0.606471 -8.02834 35.6949 16.0793 -14.8034 0.0 29.8737 0.0 -7.04037 0.129336 9.81797 0.0 0.0 0.0 0.0 0.0 0.0 -3.64043 -15.3196 3.33315 0.0 22.1185 0.0 21.4355 6.33747 1.49696 0.0 -38.833702 0.0 2.7543 -10.2542 -2.37946 0.0 61.2298 0.0 28.1799 29.837101 -3.41825 0.0 -33.1338 0.0 
  3.1865798950195314 20.70760009765625 9.63031005859375 153.044 82.441 122.661 1.47091 -9.12205 0.233625 10.1584 14.4817 0.20824 -28.2001 28.2228 31.7431 5.23659 -39.7845 11.0425 -106.0066 -7.95607 0.954307 -36.3925 -0.0936061 47.6373 0.0 95.4762 0.0 1.63816 -2.78523 -25.2739 0.0 0.0 0.0 0.0 0.0 0.0 114.7611 -1.03214 -8.30694 36.0056 15.5149 -14.4333 0.0 27.7585 0.0 -7.1314 -0.49762 9.41356 0.0 0.0 0.0 0.0 0.0 0.0 -3.49477 -14.307 2.44875 0.0 21.7991 0.0 21.4722 5.8237305 1.24091 0.0 -38.858803 0.0 3.00235 -12.0086 -2.45149 0.0 62.5855 0.0 27.0452 28.1456 -4.10665 0.0 -32.829597 0.0 
  3.0393798828125 20.67239990234375 9.649619750976562 155.372 82.1476 121.697 1.44873 -9.33976 -0.166753 10.7738 14.8679 -0.23646 -28.2473 28.3282 31.5644 5.09457 -39.767 10.789 -106.0801 -7.42333 1.05733 -36.3746 -0.0826163 47.8094 0.0 95.5394 0.0 1.8251 -2.97927 -26.0187 0.0 0.0 0.0 0.0 0.0 0.0 114.5051 -2.02662 -7.91683 36.2979 14.7285 -14.5124 0.0 26.0909 0.0 -7.25083 -1.25139 9.23771 0.0 0.0 0.0 0.0 0.0 0.0 -3.28129 -13.1645 2.19542 0.0 21.3664 0.0 21.7193 5.2885504 0.405553 0.0 -39.076202 0.0 3.16982 -13.5399 -2.73368 0.0 63.2749 0.0 24.5906 25.6969 -4.66184 0.0 -31.1587 0.0 
  2.8987200927734373 20.6402001953125 9.666959838867188 156.817 81.7965 121.559 1.44153 -9.39928 -0.733039 11.204 14.7234 -0.800391 -28.3265 28.6838 31.4814 5.06711 -39.7269 11.0109 -106.0942 -7.28353 1.21322 -36.3438 -0.246028 47.8875 0.0 95.6021 0.0 2.00145 -2.79749 -26.3392 0.0 0.0 0.0 0.0 0.0 0.0 114.2944 -1.93608 -7.16824 36.6326 12.3043 -14.8168 0.0 25.2651 0.0 -7.27748 -1.94072 8.59588 0.0 0.0 0.0 0.0 0.0 0.0 -3.05924 -12.0826 1.71316 0.0 20.7373 0.0 21.8032 4.8201 -0.332932 0.0 -39.1213 0.0 3.44479 -15.0846 -2.7559 0.0 63.22 0.0 22.3198 22.84712 -5.57461 0.0 -29.768501 0.0 
  2.761400146484375 20.6060009765625 9.682269897460937 157.811 81.4692 121.846 1.52259 -9.44676 -1.09117 11.4697 14.5307 -1.1652 -28.3317 29.0751 31.2467 5.18047 -39.7167 11.0866 -106.144104 -7.18319 1.36692 -36.1498 -0.0960453 47.9906 0.0 95.6837 0.0 2.19326 -3.06587 -25.7323 0.0 0.0 0.0 0.0 0.0 0.0 114.1825 -2.76634 -6.87097 36.7062 11.0884 -15.3242 0.0 24.3344 0.0 -7.03376 -2.42779 7.81049 0.0 0.0 0.0 0.0 0.0 0.0 -2.93175 -11.0559 0.943733 0.0 20.0946 0.0 21.8532 4.5445995 -0.712984 0.0 -39.1245 0.0 3.70338 -16.4986 -2.57899 0.0 62.3521 0.0 21.0981 20.10458 -7.00339 0.0 -31.339 0.0 
  2.624930114746094 20.578701171875 9.695590209960937 158.452 81.1096 122.393 1.55247 -9.51517 -1.33115 11.7202 14.3371 -1.39123 -28.2531 29.3908 30.9667 5.34149 -39.7661 11.1141 -106.1875 -6.99501 1.51611 -35.8837 -0.0365526 47.8828 0.0 95.7437 0.0 1.97534 -2.97758 -25.9436 0.0 0.0 0.0 0.0 0.0 0.0 114.1133 -3.69216 -6.73816 36.6859 9.96298 -16.0817 0.0 23.6872 0.0 -6.91024 -2.76246 7.14612 0.0 0.0 0.0 0.0 0.0 0.0 -2.62022 -10.1823 0.754323 0.0 19.6026 0.0 21.8713 4.0301 -1.56878 0.0 -39.2116 0.0 4.14001 -17.7925 -2.08354 0.0 60.7529 0.0 19.876 17.31276 -8.3759 0.0 -29.453499 0.0 
  2.49656005859375 20.55280029296875 9.705020141601562 158.599 80.7789 123.221 1.41767 -9.43449 -1.57116 12.1904 13.9998 -1.54496 -28.284 29.5581 30.8092 5.3164 -39.7864 10.9947 -106.3856 -6.96771 1.5416 -35.625 -0.139432 47.697 0.0 95.8818 0.0 1.67048 -3.11966 -25.4486 0.0 0.0 0.0 0.0 0.0 0.0 113.7782 -4.43224 -6.68481 36.7088 8.74164 -17.3521 0.0 23.3406 0.0 -7.03259 -3.01501 6.92235 0.0 0.0 0.0 0.0 0.0 0.0 -2.34549 -9.49065 0.555874 0.0 19.3277 0.0 22.0009 3.5335999 -2.14246 0.0 -39.1072 0.0 4.6414 -19.0833 -1.15729 0.0 58.6454 0.0 18.9713 14.487436 -9.71664 0.0 -28.3042 0.0 
  2.3711399841308594 20.5239990234375 9.708380126953125 158.321 80.4477 124.575 1.33657 -9.41915 -1.82312 12.299 13.6307 -1.73124 -27.5446 29.9022 30.0148 5.10014 -39.7653 11.4674 -106.0799 -7.25126 2.55045 -35.8577 0.639816 46.9137 0.0 95.8157 0.0 1.32489 -3.36962 -24.8786 0.0 0.0 0.0 0.0 0.0 0.0 113.5296 -3.8866 -6.70527 36.8757 5.97322 -17.4884 0.0 23.5874 0.0 -6.80347 -3.16231 6.24058 0.0 0.0 0.0 0.0 0.0 0.0 -2.12772 -8.96373 0.322388 0.0 19.1699 0.0 22.125 3.0107002 -2.73043 0.0 -39.3364 0.0 5.0854 -20.3325 -0.178958 0.0 55.9838 0.0 17.4055 13.22194 -10.7453 0.0 -28.539299 0.0 
